<svg width="18" height="19" viewBox="0 0 18 19" fill="none" xmlns="http://www.w3.org/2000/svg">
<path d="M10.91 5.91L9.5 4.5L4.5 9.5L9.5 14.5L10.91 13.09L8.33 10.5L18 10.5L18 8.5L8.33 8.5L10.91 5.91ZM2 18.5L16 18.5C16.5304 18.5 17.0391 18.2893 17.4142 17.9142C17.7893 17.5391 18 17.0304 18 16.5L18 12.5L16 12.5L16 16.5L2 16.5L2 2.5L16 2.5L16 6.5L18 6.5L18 2.5C18 1.96957 17.7893 1.46086 17.4142 1.08579C17.0391 0.710714 16.5304 0.5 16 0.5L2 0.499999C0.900001 0.499999 1.49493e-06 1.4 1.39876e-06 2.5L1.74846e-07 16.5C7.86805e-08 17.6 0.9 18.5 2 18.5Z" fill="#BF1313"/>
</svg>
